<svg xmlns="http://www.w3.org/2000/svg" version="1.1" xmlns:xlink="http://www.w3.org/1999/xlink" xmlns:svgjs="http://svgjs.dev/svgjs" width="1000" height="1000" viewBox="0 0 1000 1000"><rect width="1000" height="0" fill="#000000"></rect><g transform="matrix(0.7,0,0,0.7,149.5757575757575,416.6638609590062)"><svg viewBox="0 0 396 95" data-background-color="#5e0072" preserveAspectRatio="xMidYMid meet" height="239" width="1000" xmlns="http://www.w3.org/2000/svg" xmlns:xlink="http://www.w3.org/1999/xlink"><defs></defs><g id="tight-bounds" transform="matrix(1,0,0,1,0.24000000000003752,-0.17822349734359477)"><svg viewBox="0 0 395.5199999999999 95.35644699468722" height="95.35644699468722" width="395.5199999999999"><g><svg viewBox="0 0 604.0113411460563 145.62190391429982" height="95.35644699468722" width="395.5199999999999"><g><rect width="7.9854630843223875" height="145.62190391429982" x="179.6015244378534" y="0" fill="#ffffff" opacity="1" stroke-width="0" stroke="transparent" fill-opacity="1" class="rect-o-0" data-fill-palette-color="primary" rx="1%" id="o-0" data-palette-color="#ffff00"></rect></g><g transform="matrix(1,0,0,1,208.4913411460564,0.3622435420753618)"><svg viewBox="0 0 395.52 144.8974168301491" height="144.8974168301491" width="395.52"><g><svg viewBox="0 0 395.52 144.8974168301491" height="144.8974168301491" width="395.52"><g><svg viewBox="0 0 395.52 95.92835820895522" height="95.92835820895522" width="395.52"><g transform="matrix(1,0,0,1,0,0)"><svg width="395.52" viewBox="1.6500005722045898 -35.5 160.8000030517578 36" height="95.92835820895522" data-palette-color="#ffff00"><svg></svg><g class="undefined-text-0" data-fill-palette-color="primary" id="text-0"><path d="M9.85 0.5c-2.667 0-4.7-0.76-6.1-2.28-1.4-1.513-2.1-3.687-2.1-6.52v0-18.4c0-2.833 0.7-5.01 2.1-6.53 1.4-1.513 3.433-2.27 6.1-2.27v0c2.667 0 4.7 0.757 6.1 2.27 1.4 1.52 2.1 3.697 2.1 6.53v0 3h-5.2v-3.35c0-2.3-0.95-3.45-2.85-3.45v0c-1.9 0-2.85 1.15-2.85 3.45v0 19.15c0 2.267 0.95 3.4 2.85 3.4v0c1.9 0 2.85-1.133 2.85-3.4v0-6.85h-2.75v-5h7.95v11.45c0 2.833-0.7 5.007-2.1 6.52-1.4 1.52-3.433 2.28-6.1 2.28zM21.6 0v-35h8.15c2.833 0 4.9 0.66 6.2 1.98 1.3 1.313 1.95 3.337 1.95 6.07v0 2.15c0 3.633-1.2 5.933-3.6 6.9v0 0.1c1.333 0.4 2.277 1.217 2.83 2.45 0.547 1.233 0.82 2.883 0.82 4.95v0 6.15c0 1 0.033 1.807 0.1 2.42 0.067 0.62 0.233 1.23 0.5 1.83v0h-5.6c-0.2-0.567-0.333-1.1-0.4-1.6-0.067-0.5-0.1-1.4-0.1-2.7v0-6.4c0-1.6-0.257-2.717-0.77-3.35-0.52-0.633-1.413-0.95-2.68-0.95v0h-1.9v15zM27.1-20h2c1.1 0 1.927-0.283 2.48-0.85 0.547-0.567 0.82-1.517 0.82-2.85v0-2.7c0-1.267-0.223-2.183-0.67-2.75-0.453-0.567-1.163-0.85-2.13-0.85v0h-2.5zM49.7 0.5c-2.7 0-4.767-0.767-6.2-2.3-1.433-1.533-2.15-3.7-2.15-6.5v0-18.4c0-2.8 0.717-4.967 2.15-6.5 1.433-1.533 3.5-2.3 6.2-2.3v0c2.7 0 4.767 0.767 6.2 2.3 1.433 1.533 2.15 3.7 2.15 6.5v0 18.4c0 2.8-0.717 4.967-2.15 6.5-1.433 1.533-3.5 2.3-6.2 2.3zM49.7-4.5c1.9 0 2.85-1.15 2.85-3.45v0-19.1c0-2.3-0.95-3.45-2.85-3.45v0c-1.9 0-2.85 1.15-2.85 3.45v0 19.1c0 2.3 0.95 3.45 2.85 3.45zM64 0l-3.55-35h5.3l2.45 26.9h0.1l2.6-26.9h6l2.6 26.9h0.1l2.45-26.9h4.75l-3.55 35h-6.85l-2.5-23.6h-0.1l-2.5 23.6zM89.6 0v-35h15v5h-9.5v9.25h7.55v5h-7.55v10.75h9.5v5zM107.75 0v-35h8.15c2.833 0 4.9 0.66 6.2 1.98 1.3 1.313 1.95 3.337 1.95 6.07v0 2.15c0 3.633-1.2 5.933-3.6 6.9v0 0.1c1.333 0.4 2.277 1.217 2.83 2.45 0.547 1.233 0.82 2.883 0.82 4.95v0 6.15c0 1 0.033 1.807 0.1 2.42 0.067 0.62 0.233 1.23 0.5 1.83v0h-5.6c-0.2-0.567-0.333-1.1-0.4-1.6-0.067-0.5-0.1-1.4-0.1-2.7v0-6.4c0-1.6-0.257-2.717-0.77-3.35-0.52-0.633-1.413-0.95-2.68-0.95v0h-1.9v15zM113.25-20h2c1.1 0 1.927-0.283 2.48-0.85 0.547-0.567 0.82-1.517 0.82-2.85v0-2.7c0-1.267-0.223-2.183-0.67-2.75-0.453-0.567-1.163-0.85-2.13-0.85v0h-2.5zM135.7 0.5c-2.667 0-4.7-0.76-6.1-2.28-1.4-1.513-2.1-3.687-2.1-6.52v0-18.4c0-2.833 0.7-5.01 2.1-6.53 1.4-1.513 3.433-2.27 6.1-2.27v0c2.667 0 4.7 0.757 6.1 2.27 1.4 1.52 2.1 3.697 2.1 6.53v0 3h-5.2v-3.35c0-2.3-0.95-3.45-2.85-3.45v0c-1.9 0-2.85 1.15-2.85 3.45v0 19.15c0 2.267 0.95 3.4 2.85 3.4v0c1.9 0 2.85-1.133 2.85-3.4v0-6.85h-2.75v-5h7.95v11.45c0 2.833-0.7 5.007-2.1 6.52-1.4 1.52-3.433 2.28-6.1 2.28zM147.45 0v-35h15v5h-9.5v9.25h7.55v5h-7.55v10.75h9.5v5z" data-fill-palette-color="primary" fill="#ffffff" opacity="1"></path></g></svg></g></svg></g><g transform="matrix(1,0,0,1,0,116.83271183283581)"><svg viewBox="0 0 300.5952 28.064704997313275" height="28.064704997313275" width="300.5952"><g transform="matrix(1,0,0,1,0,0)"><svg width="300.5952" viewBox="3.75 -34.29999923706055 372.1600036621094 34.75" height="28.064704997313275" data-palette-color="#ffff00"><path d="M6.85 0L3.75 0 6.1-33.7 10.35-33.7 14.75-21.35 20.7-4.2Q24.15-13.7 27-21.35L27-21.35 31.6-33.7 35.85-33.7 38.7 0 35.6 0 34.45-13.35 33.1-29.65Q30.1-21.3 27.15-13.35L27.15-13.35 22.5-0.85 18.85-0.85 14.45-13.35 8.85-29.3Q8.4-21.75 7.8-13.35L7.8-13.35 6.85 0ZM47.85-14.1L62.8-14.1 62.8-15.25Q62.8-18.7 60.87-20.75 58.95-22.8 55.7-22.8L55.7-22.8Q52.5-22.8 50.35-20.55 48.2-18.3 47.85-14.1L47.85-14.1ZM64.35-4.35L64.35-4.35 64.35-1.25Q61.35 0.25 57.35 0.25L57.35 0.25Q51.7 0.25 48.17-3.28 44.65-6.8 44.65-12.55L44.65-12.55Q44.65-18.65 47.75-22.15 50.85-25.65 55.8-25.65L55.8-25.65Q60.45-25.65 63.2-22.6 65.95-19.55 65.95-14L65.95-14Q65.95-12.3 65.75-11.3L65.75-11.3 47.85-11.3Q48.2-7.1 50.75-4.88 53.3-2.65 57.5-2.65L57.5-2.65Q61.8-2.65 64.35-4.35ZM73.8-14.1L88.75-14.1 88.75-15.25Q88.75-18.7 86.82-20.75 84.9-22.8 81.65-22.8L81.65-22.8Q78.45-22.8 76.3-20.55 74.15-18.3 73.8-14.1L73.8-14.1ZM90.3-4.35L90.3-4.35 90.3-1.25Q87.3 0.25 83.3 0.25L83.3 0.25Q77.65 0.25 74.12-3.28 70.6-6.8 70.6-12.55L70.6-12.55Q70.6-18.65 73.7-22.15 76.8-25.65 81.75-25.65L81.75-25.65Q86.4-25.65 89.15-22.6 91.9-19.55 91.9-14L91.9-14Q91.9-12.3 91.7-11.3L91.7-11.3 73.8-11.3Q74.15-7.1 76.7-4.88 79.25-2.65 83.45-2.65L83.45-2.65Q87.75-2.65 90.3-4.35ZM110.04-22.75L102.79-22.75 102.79-7Q102.79-2.65 106.84-2.65L106.84-2.65Q108.84-2.65 110.24-3.8L110.24-3.8 110.24-0.7Q108.79 0.25 106.89 0.25L106.89 0.25Q99.69 0.25 99.69-7.15L99.69-7.15 99.69-22.75 95.54-22.75 95.54-25.35 99.69-25.35 99.69-31.7 102.79-31.7 102.79-25.35 110.04-25.35 110.04-22.75ZM114.22-0.33Q113.49-1.05 113.49-2.15 113.49-3.25 114.22-3.98 114.94-4.7 116.04-4.7 117.14-4.7 117.87-3.98 118.59-3.25 118.59-2.15 118.59-1.05 117.87-0.33 117.14 0.4 116.04 0.4 114.94 0.4 114.22-0.33ZM152.84-32.5L152.84-32.5 152.84-29.05Q151.64-29.85 149.69-30.4 147.74-30.95 145.89-30.95L145.89-30.95Q142.54-30.95 140.54-29.38 138.54-27.8 138.54-25.2L138.54-25.2Q138.54-23.85 139.06-22.8 139.59-21.75 140.84-20.88 142.09-20 143.01-19.53 143.94-19.05 145.84-18.25L145.84-18.25Q147.59-17.5 148.49-17.07 149.39-16.65 150.79-15.75 152.19-14.85 152.91-13.98 153.64-13.1 154.21-11.73 154.79-10.35 154.79-8.7L154.79-8.7Q154.79-4.3 151.84-1.98 148.89 0.35 144.29 0.35L144.29 0.35Q139.09 0.35 135.44-1.85L135.44-1.85 135.44-5.3Q136.94-4.15 139.31-3.4 141.69-2.65 144.14-2.65L144.14-2.65Q147.69-2.65 149.66-4.2 151.64-5.75 151.64-8.65L151.64-8.65Q151.64-10.85 150.14-12.23 148.64-13.6 145.79-14.85L145.79-14.85Q145.39-15.05 144.04-15.63 142.69-16.2 142.14-16.45 141.59-16.7 140.44-17.3 139.29-17.9 138.76-18.35 138.24-18.8 137.44-19.55 136.64-20.3 136.29-21.05 135.94-21.8 135.64-22.83 135.34-23.85 135.34-25L135.34-25Q135.34-29.25 138.39-31.63 141.44-34 145.84-34L145.84-34Q150.04-34 152.84-32.5ZM173.78-22.75L166.53-22.75 166.53-7Q166.53-2.65 170.58-2.65L170.58-2.65Q172.58-2.65 173.98-3.8L173.98-3.8 173.98-0.7Q172.53 0.25 170.63 0.25L170.63 0.25Q163.43 0.25 163.43-7.15L163.43-7.15 163.43-22.75 159.28-22.75 159.28-25.35 163.43-25.35 163.43-31.7 166.53-31.7 166.53-25.35 173.78-25.35 173.78-22.75ZM193.98-8.4L193.98-12.05 189.03-12.05Q185.48-12.05 183.73-10.68 181.98-9.3 181.98-7.25L181.98-7.25Q181.98-5.15 183.36-3.85 184.73-2.55 187.38-2.55L187.38-2.55Q190.38-2.55 192.18-4.2 193.98-5.85 193.98-8.4L193.98-8.4ZM180.58-20.7L180.58-20.7 180.58-24Q183.48-25.75 187.73-25.75L187.73-25.75Q197.03-25.75 197.03-16L197.03-16 197.03 0 193.98 0 193.98-2.95Q191.88 0.25 186.68 0.25L186.68 0.25Q183.18 0.25 180.96-1.83 178.73-3.9 178.73-7.15L178.73-7.15Q178.73-10.8 181.56-12.83 184.38-14.85 189.03-14.85L189.03-14.85 193.98-14.85 193.98-16Q193.98-19.4 192.53-21.13 191.08-22.85 187.68-22.85L187.68-22.85Q183.73-22.85 180.58-20.7ZM204.33-25.35L207.38-25.35 207.38-21.05Q209.48-25.65 214.48-25.65L214.48-25.65Q214.83-25.65 215.73-25.55L215.73-25.55 215.73-22.45Q214.73-22.75 213.73-22.75L213.73-22.75Q211.03-22.75 209.2-20.08 207.38-17.4 207.38-14.15L207.38-14.15 207.38 0 204.33 0 204.33-25.35ZM231.98-22.75L224.73-22.75 224.73-7Q224.73-2.65 228.78-2.65L228.78-2.65Q230.78-2.65 232.18-3.8L232.18-3.8 232.18-0.7Q230.73 0.25 228.83 0.25L228.83 0.25Q221.63 0.25 221.63-7.15L221.63-7.15 221.63-22.75 217.48-22.75 217.48-25.35 221.63-25.35 221.63-31.7 224.73-31.7 224.73-25.35 231.98-25.35 231.98-22.75ZM236.15-0.33Q235.42-1.05 235.42-2.15 235.42-3.25 236.15-3.98 236.87-4.7 237.97-4.7 239.07-4.7 239.8-3.98 240.52-3.25 240.52-2.15 240.52-1.05 239.8-0.33 239.07 0.4 237.97 0.4 236.87 0.4 236.15-0.33ZM272.12-18.55L283.17-18.55 283.17-2.5Q279.22 0.4 273.17 0.4L273.17 0.4Q265.47 0.4 260.79-4.23 256.12-8.85 256.12-16.9L256.12-16.9Q256.12-24.5 260.69-29.4 265.27-34.3 272.27-34.3L272.27-34.3Q278.22-34.3 282.07-31.95L282.07-31.95 282.07-28.5Q278.22-31.2 272.67-31.2L272.67-31.2Q266.77-31.2 263.04-27.28 259.32-23.35 259.32-16.9L259.32-16.9Q259.32-10.25 263.02-6.48 266.72-2.7 273.22-2.7L273.22-2.7Q277.07-2.7 280.07-4.25L280.07-4.25 280.07-15.8 272.12-15.8 272.12-18.55ZM290.47-25.35L293.52-25.35 293.52-21.05Q295.62-25.65 300.62-25.65L300.62-25.65Q300.97-25.65 301.87-25.55L301.87-25.55 301.87-22.45Q300.87-22.75 299.87-22.75L299.87-22.75Q297.17-22.75 295.34-20.08 293.52-17.4 293.52-14.15L293.52-14.15 293.52 0 290.47 0 290.47-25.35ZM316.26 0.45L316.26 0.45Q310.91 0.45 307.76-3.25 304.61-6.95 304.61-12.55L304.61-12.55Q304.61-18.1 307.86-21.9 311.11-25.7 316.26-25.7L316.26-25.7Q321.91-25.7 325.04-21.98 328.16-18.25 328.16-12.55L328.16-12.55Q328.16-6.9 324.99-3.23 321.81 0.45 316.26 0.45ZM316.26-22.8L316.26-22.8Q312.31-22.8 310.06-19.8 307.81-16.8 307.81-12.55L307.81-12.55Q307.81-8.4 310.14-5.43 312.46-2.45 316.26-2.45L316.26-2.45Q320.41-2.45 322.69-5.38 324.96-8.3 324.96-12.55L324.96-12.55Q324.96-16.95 322.81-19.88 320.66-22.8 316.26-22.8ZM343.76 0L339.66 0 331.91-25.35 335.26-25.35 337.76-16.95Q339.16-12.25 340.14-8.78 341.11-5.3 341.41-4.2L341.41-4.2 341.66-3.05Q342.56-6.3 345.66-17L345.66-17 348.06-25.35 351.66-25.35 354.16-17 358.26-2.95Q359.06-5.9 362.51-17L362.51-17 365.11-25.35 368.31-25.35 360.31 0 356.21 0 353.76-8.3 349.86-21.8Q349.01-18.65 346.11-8.3L346.11-8.3 343.76 0ZM371.53-0.33Q370.81-1.05 370.81-2.15 370.81-3.25 371.53-3.98 372.26-4.7 373.36-4.7 374.46-4.7 375.18-3.98 375.91-3.25 375.91-2.15 375.91-1.05 375.18-0.33 374.46 0.4 373.36 0.4 372.26 0.4 371.53-0.33Z" opacity="1" transform="matrix(1,0,0,1,0,0)" fill="#ffffff" class="undefined-text-1" data-fill-palette-color="secondary" id="text-1"></path></svg></g></svg></g></svg></g></svg></g><g transform="matrix(1,0,0,1,0,0.3622435420753618)"><svg viewBox="0 0 158.69717081397283 144.8974168301491" height="144.8974168301491" width="158.69717081397283"><g><svg xmlns:x="http://ns.adobe.com/Extensibility/1.0/" xmlns:i="http://ns.adobe.com/AdobeIllustrator/10.0/" xmlns:graph="http://ns.adobe.com/Graphs/1.0/" xmlns="http://www.w3.org/2000/svg" xmlns:xlink="http://www.w3.org/1999/xlink" version="1.1" x="0" y="0" viewBox="9 11 46 42" enable-background="new 0 0 64 64" xml:space="preserve" height="144.8974168301491" width="158.69717081397283" class="icon-icon-0" data-fill-palette-color="accent" id="icon-0"><g fill="#ffff00" data-fill-palette-color="accent"><g fill="#ffff00" data-fill-palette-color="accent"><path d="M54 27c-0.553 0-1 0.448-1 1v23H11V36c0-0.553-0.448-1-1-1s-1 0.447-1 1v16c0 0.553 0.448 1 1 1h44c0.553 0 1-0.447 1-1V28C55 27.448 54.553 27 54 27z" fill="#ffffff" data-fill-palette-color="accent"></path><path d="M54 11h-8c-0.553 0-1 0.448-1 1s0.447 1 1 1h5.586L33.938 30.647 22.64 21.232c-0.306-0.255-0.733-0.304-1.087-0.126l-12 6c-0.494 0.247-0.694 0.848-0.447 1.342 0.247 0.494 0.846 0.696 1.342 0.447l11.415-5.708 11.497 9.581C33.546 32.923 33.773 33 34 33c0.257 0 0.513-0.099 0.707-0.293L53 14.414V20c0 0.552 0.447 1 1 1s1-0.448 1-1v-8C55 11.448 54.553 11 54 11z" fill="#ffffff" data-fill-palette-color="accent"></path></g></g></svg></g></svg></g></svg></g></svg><rect width="395.5199999999999" height="95.35644699468722" fill="none" stroke="none" visibility="hidden"></rect></g></svg></g></svg>